<svg width="176" height="112" viewBox="0 0 176 112" fill="none" xmlns="http://www.w3.org/2000/svg">
<path fill-rule="evenodd" clip-rule="evenodd" d="M72.6171 14.8993C68.0057 7.03357 56.4773 7.03358 51.8659 14.8993L10.623 85.2481C6.01161 93.1138 11.7758 102.946 20.9986 102.946H72.5156H103.484H155.001C164.224 102.946 169.988 93.1138 165.377 85.2481L124.134 14.8993C119.523 7.03357 107.994 7.03358 103.383 14.8993L88 41.1382L72.6171 14.8993Z" stroke="url(#paint0_linear)" stroke-width="17.0811"/>
<path d="M94.4056 70.1198C94.4056 76.7755 90.168 79.4593 88.0001 79.4593C85.8323 79.4593 81.5947 76.7755 81.5947 70.1198C81.5947 69.4653 81.9376 67.7376 83.2091 64.8424C84.3893 62.1552 86.0344 59.2011 87.7899 56.364C87.86 56.2507 87.9301 56.1379 88.0001 56.0256C88.0702 56.1379 88.1403 56.2507 88.2104 56.364C89.9659 59.2011 91.611 62.1552 92.7912 64.8424C94.0627 67.7376 94.4056 69.4653 94.4056 70.1198Z" stroke="#5189ED" stroke-width="17.0811"/>
<defs>
<linearGradient id="paint0_linear" x1="88" y1="9" x2="88" y2="102.946" gradientUnits="userSpaceOnUse">
<stop stop-color="#8759F2"/>
<stop offset="1" stop-color="#00D4E6"/>
</linearGradient>
</defs>
</svg>
