<svg width="310" height="428" viewBox="0 0 310 428" fill="none" xmlns="http://www.w3.org/2000/svg">
<path d="M305 412.5L305 287.5L280 275M305 412.5L280 425L180 375M305 412.5L205 362.5M280 275L280 375L230 350L255 337.5L155 387.5L55 337.5L80 350L30 375L30 275M280 275L155 337.5L30 275M255 362.5L255 312.5L155 362.5L55 312.5L55 362.5M4.99999 412.5L5 287.5L30 275M4.99999 412.5L30 425L130 375M4.99999 412.5L105 362.5" stroke="#07FFE1" stroke-width="5" stroke-linejoin="round"/>
<path d="M136.189 110.424V159.698M136.189 110.424H163.075C167.829 110.424 172.388 112.155 175.749 115.235C179.111 118.315 180.999 122.493 180.999 126.849C180.999 131.205 179.111 135.383 175.749 138.463C172.388 141.543 167.829 143.273 163.075 143.273H136.189V110.424ZM136.189 159.698C131.436 159.698 116.122 164.22 112.761 167.301C109.399 170.381 118.265 171.766 118.265 176.122M136.189 159.698H172.037C179.168 159.698 186.006 156.237 191.048 150.077C196.09 143.916 198.923 135.561 198.923 126.849C198.923 118.137 196.09 109.782 191.048 103.621C186.006 97.4609 179.168 94 172.037 94H145.151H118.265V176.122M118.265 176.122C118.265 180.478 132.828 173.042 136.189 176.122C139.551 179.202 150.26 257.177 150.26 227.12L154.722 170.702" stroke="#00FFE0" stroke-width="5" stroke-linecap="square" stroke-linejoin="round"/>
<path d="M5 153.736H0H5ZM61.25 153.736H56.25H61.25ZM155 246.696V251.696V246.696ZM248.75 153.736H253.75H248.75ZM155 0C113.905 0 74.4848 16.1869 45.4134 45.0133L52.4545 52.1142C79.6441 25.1538 116.53 10 155 10V0ZM45.4134 45.0133C16.3407 73.8411 0 112.949 0 153.736H10C10 115.629 25.2664 79.0733 52.4545 52.1142L45.4134 45.0133ZM0 153.736C0 194.523 16.3407 233.631 45.4134 262.459L52.4545 255.358C25.2664 228.399 10 191.843 10 153.736H0ZM45.4134 262.459C74.4848 291.285 113.905 307.472 155 307.472V297.472C116.53 297.472 79.6441 282.318 52.4545 255.358L45.4134 262.459ZM155 307.472C196.095 307.472 235.515 291.285 264.587 262.459L257.545 255.358C230.356 282.318 193.47 297.472 155 297.472V307.472ZM264.587 262.459C293.659 233.631 310 194.523 310 153.736H300C300 191.843 284.734 228.399 257.545 255.358L264.587 262.459ZM310 153.736C310 112.949 293.659 73.8411 264.587 45.0133L257.545 52.1142C284.734 79.0733 300 115.629 300 153.736H310ZM264.587 45.0133C235.515 16.1869 196.095 0 155 0V10C193.47 10 230.356 25.1538 257.545 52.1142L264.587 45.0133ZM155 55.776C128.823 55.776 103.711 66.0865 85.1882 84.4529L92.2293 91.5538C108.87 75.0534 131.448 65.776 155 65.776V55.776ZM85.1882 84.4529C66.6644 102.821 56.25 127.742 56.25 153.736H66.25C66.25 130.421 75.59 108.053 92.2293 91.5538L85.1882 84.4529ZM56.25 153.736C56.25 179.73 66.6644 204.651 85.1882 223.019L92.2293 215.918C75.59 199.419 66.25 177.051 66.25 153.736H56.25ZM85.1882 223.019C103.711 241.385 128.823 251.696 155 251.696V241.696C131.448 241.696 108.87 232.419 92.2293 215.918L85.1882 223.019ZM155 251.696C181.177 251.696 206.289 241.385 224.812 223.019L217.771 215.918C201.13 232.419 178.552 241.696 155 241.696V251.696ZM224.812 223.019C243.336 204.651 253.75 179.73 253.75 153.736H243.75C243.75 177.051 234.41 199.419 217.771 215.918L224.812 223.019ZM253.75 153.736C253.75 127.742 243.336 102.821 224.812 84.4529L217.771 91.5538C234.41 108.053 243.75 130.421 243.75 153.736H253.75ZM224.812 84.4529C206.289 66.0865 181.177 55.776 155 55.776V65.776C178.552 65.776 201.13 75.0534 217.771 91.5538L224.812 84.4529ZM95.6427 75.4508C63.5147 100.937 45.479 131.55 42.2084 167.223C38.9548 202.712 50.3799 242.495 75.6679 286.376L84.3321 281.383C59.6201 238.502 49.1702 200.819 52.1666 168.136C55.1461 135.639 71.4853 107.378 101.857 83.2852L95.6427 75.4508ZM214.357 232.021C246.464 206.552 264.517 176.28 267.791 140.92C271.047 105.752 259.612 66.2967 234.332 22.4299L225.668 27.4229C250.388 70.3188 260.828 107.663 257.834 139.998C254.858 172.142 238.536 200.077 208.143 224.187L214.357 232.021Z" fill="#FFE700"/>
</svg>
